<svg aria-hidden="true" style="position:absolute;width:0;height:0" xmlns="http://www.w3.org/2000/svg" overflow="hidden"><defs><symbol id="icon-facebook" viewBox="0 0 32 32"><path d="M13.931 24.25h3.218a.5.5 0 00.5-.5v-7.244h1.672a.5.5 0 00.497-.449l.282-2.736a.497.497 0 00-.497-.551h-1.954v-1.108c0-.229.072-.246.183-.246h1.73a.5.5 0 00.5-.5V8.26a.5.5 0 00-.498-.5l-2.386-.01c-1.672 0-2.564.736-3.018 1.353-.634.862-.729 1.871-.729 2.396v1.271h-1.03a.5.5 0 00-.5.5v2.736a.5.5 0 00.5.5h1.03v7.244a.5.5 0 00.5.5zM12.9 15.506V13.77h1.03a.5.5 0 00.5-.5v-1.771c0-.324.052-1.149.534-1.804.462-.627 1.206-.945 2.211-.945l1.886.008v1.658h-1.23c-.589 0-1.183.385-1.183 1.246v1.608a.5.5 0 00.5.5h1.9l-.179 1.736h-1.721a.5.5 0 00-.5.5v7.244H14.43v-7.244a.5.5 0 00-.5-.5H12.9z"/><path d="M27.314 4.686C24.292 1.664 20.274 0 16 0S7.709 1.664 4.687 4.686.001 11.726.001 16s1.664 8.292 4.686 11.314S11.727 32 16 32c4.274 0 8.292-1.664 11.314-4.686S32 20.274 32 16s-1.664-8.291-4.686-11.313zm-.707 21.921C23.774 29.44 20.007 31 16 31s-7.773-1.56-10.606-4.393C2.561 23.774 1 20.007 1 16S2.56 8.227 5.394 5.394C8.227 2.561 11.994 1 16 1s7.774 1.56 10.607 4.394C29.44 8.227 31 11.994 31 16s-1.56 7.774-4.393 10.607z"/></symbol><symbol id="icon-instagram" viewBox="0 0 32 32"><path d="M27.314 4.687C24.292 1.665 20.274 0 16 0S7.709 1.664 4.687 4.687C1.665 7.709 0 11.727 0 16s1.664 8.292 4.687 11.314C7.709 30.336 11.727 32 16 32s8.292-1.664 11.314-4.686C30.336 24.292 32 20.274 32 16s-1.664-8.292-4.686-11.313zm-.707 21.92C23.774 29.44 20.007 31 16 31s-7.773-1.56-10.606-4.393C2.561 23.774 1 20.007 1 16S2.56 8.227 5.394 5.394 11.994 1 16 1c4.007 0 7.773 1.56 10.607 4.394S31 11.994 31 16c0 4.007-1.56 7.774-4.393 10.607z"/><path d="M20.202 7.978h-8.373a3.854 3.854 0 00-3.85 3.85v8.373a3.854 3.854 0 003.85 3.85h8.373a3.854 3.854 0 003.85-3.85v-8.373a3.854 3.854 0 00-3.85-3.85zm2.837 12.224a2.84 2.84 0 01-2.837 2.837h-8.373a2.84 2.84 0 01-2.836-2.837v-8.373a2.839 2.839 0 012.836-2.836h8.373a2.84 2.84 0 012.837 2.836v8.373z"/><path d="M20.508 10.916a.618.618 0 000 1.234.618.618 0 000-1.234zm-4.493 1.16c-2.172 0-3.94 1.767-3.94 3.94s1.767 3.94 3.94 3.94c2.172 0 3.94-1.767 3.94-3.94s-1.768-3.94-3.94-3.94zm0 6.865c-1.613 0-2.926-1.313-2.926-2.926s1.313-2.925 2.926-2.925c1.613 0 2.926 1.312 2.926 2.925s-1.312 2.926-2.926 2.926z"/></symbol><symbol id="icon-twitter" viewBox="0 0 32 32"><path d="M27.314 4.686C24.292 1.664 20.274 0 16 0S7.709 1.664 4.687 4.686.001 11.726.001 16s1.664 8.292 4.686 11.314S11.727 32 16 32c4.274 0 8.292-1.664 11.314-4.686S32 20.274 32 16s-1.664-8.291-4.686-11.313zm-.707 21.921C23.774 29.44 20.007 31 16 31s-7.773-1.56-10.606-4.393C2.561 23.774 1 20.007 1 16S2.56 8.227 5.394 5.394C8.227 2.561 11.994 1 16 1s7.774 1.56 10.607 4.394C29.44 8.227 31 11.994 31 16s-1.56 7.774-4.393 10.607z"/><path d="M24.916 12.173a.5.5 0 00-.618-.734l-.038.017c.118-.211.215-.434.289-.667a.5.5 0 00-.732-.583c-.505.3-1.044.52-1.608.656a3.683 3.683 0 00-6.154 2.895 8.558 8.558 0 01-5.589-3.087.498.498 0 00-.82.064 3.676 3.676 0 00-.498 1.85c0 .622.155 1.221.441 1.751a.496.496 0 00-.466.499v.04a3.69 3.69 0 001.288 2.795.5.5 0 00-.15.531 3.677 3.677 0 002.142 2.295 5.855 5.855 0 01-2.645.621 6.24 6.24 0 01-.701-.04.5.5 0 00-.328.917 9.507 9.507 0 005.145 1.508c3.591 0 5.839-1.695 7.093-3.118 1.561-1.77 2.456-4.114 2.456-6.431l-.001-.167a6.902 6.902 0 001.494-1.612zm-2.295.963a.502.502 0 00-.207.43c.006.123.009.249.009.386 0 2.076-.804 4.179-2.206 5.769-1.117 1.268-3.125 2.779-6.342 2.779a8.518 8.518 0 01-2.868-.496 6.832 6.832 0 003.01-1.356.501.501 0 00-.299-.893 2.683 2.683 0 01-2.158-1.158c.251-.015.5-.056.744-.122a.499.499 0 00-.032-.973 2.69 2.69 0 01-2.045-1.891c.267.071.543.111.82.121a.5.5 0 00.295-.916 2.677 2.677 0 01-1.107-2.904 9.553 9.553 0 006.375 2.895.5.5 0 00.512-.613 2.682 2.682 0 014.568-2.444.5.5 0 00.46.148c.189-.037.377-.082.562-.135a2.682 2.682 0 01-.293.203.5.5 0 00.316.925c.081-.009.163-.02.244-.033a5.93 5.93 0 01-.355.277z"/></symbol><symbol id="icon-youtube" viewBox="0 0 32 32"><path d="M27.314 4.686C24.292 1.664 20.274 0 16 0S7.709 1.664 4.687 4.686.001 11.726.001 16s1.664 8.292 4.686 11.314S11.727 32 16 32c4.274 0 8.292-1.664 11.314-4.686S32 20.274 32 16s-1.664-8.291-4.686-11.313zm-.707 21.921C23.774 29.44 20.007 31 16 31s-7.773-1.56-10.606-4.393C2.561 23.774 1 20.007 1 16S2.56 8.227 5.394 5.394C8.227 2.561 11.994 1 16 1s7.774 1.56 10.607 4.394C29.44 8.227 31 11.994 31 16s-1.56 7.774-4.393 10.607z"/><path d="M24.613 12.451c-.019-.14-.198-1.383-.78-2.015-.695-.774-1.487-.854-1.867-.893a1.69 1.69 0 01-.091-.01l-.023-.002c-2.297-.178-5.765-.18-5.799-.18h-.008c-.035 0-3.502.002-5.799.18l-.022.002-.091.01c-.38.039-1.171.119-1.867.893-.582.632-.761 1.875-.78 2.015l-.001.008a28.453 28.453 0 00-.168 2.9v1.332c0 1.435.161 2.841.168 2.9l.001.008c.019.14.198 1.382.78 2.014.644.716 1.459.82 1.898.877.077.01.144.018.189.028a.662.662 0 00.047.007c1.325.136 5.469.177 5.651.179.035 0 3.505-.008 5.802-.184l.025-.003c.028-.004.06-.007.094-.01.38-.04 1.169-.122 1.862-.893.582-.631.762-1.874.78-2.014l.001-.008c.007-.059.168-1.466.168-2.9V15.36c0-1.434-.161-2.841-.168-2.9l-.001-.008zm-.831 4.24c0 1.337-.151 2.696-.161 2.781-.038.278-.212 1.127-.525 1.465l-.006.006c-.436.487-.91.536-1.224.569a5.302 5.302 0 00-.104.012c-2.259.172-5.681.18-5.71.18-.042-.001-4.227-.043-5.532-.172-.072-.013-.15-.023-.232-.034-.374-.048-.887-.114-1.284-.556l-.006-.006c-.278-.3-.469-1.056-.525-1.465a27.928 27.928 0 01-.161-2.781v-1.332c0-1.338.151-2.697.161-2.781.038-.278.212-1.128.525-1.467l.005-.006c.438-.488.912-.536 1.226-.568l.101-.011c2.258-.174 5.677-.176 5.711-.176h.008c.034 0 3.453.002 5.712.176l.101.011c.314.032.788.08 1.226.568a.027.027 0 01.005.006c.278.3.469 1.057.525 1.467.01.087.161 1.445.161 2.781v1.332z"/><path d="M19.397 15.599l-5.147-3.088a.5.5 0 00-.758.429v6.177a.5.5 0 00.757.429l5.147-3.088a.499.499 0 000-.858zm-4.905 2.634v-4.411l3.676 2.205-3.676 2.205z"/></symbol><symbol id="icon-cancel" viewBox="0 0 32 32"><path fill="var(--color1, #34495e)" d="M17.767 16.002L31.633 2.136A1.25 1.25 0 0029.865.368L15.999 14.234 2.133.368A1.25 1.25 0 00.365 2.136l13.866 13.866L.365 29.868a1.25 1.25 0 001.768 1.768L15.999 17.77l13.866 13.866c.244.244.564.366.884.366s.64-.122.884-.366a1.25 1.25 0 000-1.768L17.767 16.002z"/></symbol></defs></svg>